Coordinates
version=1
nRows=60
nColumns=12
inDegrees=yes

Units are S.I. units (second, meters, Newtons, ...)
Angles are in degrees

endheader
time	SC_y	SC_z	SC_x	AC_y	AC_z	AC_x	GH_y	GH_z	GH_yy	EL_x	PS_y
       0.0              -51.85           10.4          78.61          33.51         -8.386         -9.149          -76.0           -9.8         -127.8          103.5          143.3
   0.02015              -51.84           10.4           78.6          33.51         -8.384         -9.148         -75.98         -9.797         -127.7          103.5          143.3
    0.0403              -51.84          10.39           78.6          33.51         -8.382         -9.148         -75.95         -9.795         -127.7          103.5          143.3
   0.06044              -51.84          10.39          78.59          33.51         -8.379         -9.147         -75.93         -9.792         -127.7          103.5          143.3
   0.08059              -51.83          10.39          78.58          33.51         -8.377         -9.147          -75.9         -9.788         -127.7          103.5          143.3
    0.1007              -51.83          10.39          78.57          33.52         -8.374         -9.146         -75.87         -9.785         -127.7          103.5          143.3
    0.1209              -51.82          10.38          78.56          33.52         -8.371         -9.145         -75.84         -9.781         -127.6          103.5          143.3
     0.141              -51.82          10.38          78.55          33.52         -8.367         -9.145          -75.8         -9.778         -127.6          103.5          143.3
    0.1612              -51.81          10.38          78.54          33.52         -8.364         -9.144         -75.77         -9.774         -127.6          103.5          143.3
    0.1813              -51.81          10.38          78.53          33.52          -8.36         -9.143         -75.73         -9.769         -127.5          103.6          143.3
    0.2015               -51.8          10.37          78.51          33.52         -8.356         -9.142         -75.69         -9.764         -127.5          103.6          143.3
    0.2216              -51.79          10.37           78.5          33.53         -8.352         -9.142         -75.64         -9.759         -127.5          103.6          143.2
    0.2418              -51.79          10.37          78.48          33.53         -8.347         -9.141         -75.59         -9.754         -127.4          103.6          143.2
    0.2619              -51.78          10.36          78.47          33.53         -8.342          -9.14         -75.54         -9.748         -127.4          103.6          143.2
    0.2821              -51.77          10.36          78.45          33.53         -8.337         -9.139         -75.48         -9.741         -127.3          103.6          143.2
    0.3022              -51.76          10.35          78.43          33.54         -8.331         -9.137         -75.42         -9.734         -127.3          103.6          143.2
    0.3224              -51.75          10.35          78.41          33.54         -8.325         -9.136         -75.35         -9.727         -127.2          103.6          143.2
    0.3425              -51.74          10.34          78.39          33.54         -8.318         -9.135         -75.28         -9.718         -127.2          103.6          143.2
    0.3627              -51.73          10.34          78.36          33.55          -8.31         -9.133          -75.2         -9.709         -127.1          103.6          143.1
    0.3828              -51.71          10.33          78.33          33.55         -8.302         -9.131         -75.11         -9.699         -127.0          103.6          143.1
     0.403               -51.7          10.32           78.3          33.55         -8.293          -9.13         -75.02         -9.688         -126.9          103.7          143.1
    0.4231              -51.68          10.31          78.27          33.56         -8.283         -9.127         -74.91         -9.676         -126.9          103.7          143.1
    0.4433              -51.67           10.3          78.23          33.57         -8.272         -9.125          -74.8         -9.663         -126.8          103.7          143.0
    0.4634              -51.65          10.29          78.19          33.57          -8.26         -9.123         -74.67         -9.649         -126.6          103.7          143.0
    0.4836              -51.63          10.28          78.15          33.58         -8.246          -9.12         -74.52         -9.632         -126.5          103.7          142.9
    0.5037               -51.6          10.27           78.1          33.59         -8.231         -9.117         -74.36         -9.614         -126.4          103.8          142.9
    0.5239              -51.58          10.26          78.04          33.59         -8.214         -9.113         -74.18         -9.594         -126.2          103.8          142.9
     0.544              -51.55          10.24          77.98           33.6         -8.195         -9.109         -73.98         -9.571         -126.1          103.8          142.8
    0.5642              -51.51          10.22          77.91          33.61         -8.173         -9.105         -73.75         -9.545         -125.9          103.9          142.7
    0.5843              -51.47           10.2          77.83          33.63         -8.149           -9.1         -73.49         -9.515         -125.7          103.9          142.7
    0.6044              -51.43          10.18          77.74          33.64         -8.121         -9.094          -73.2         -9.482         -125.4          103.9          142.6
    0.6246              -51.38          10.15          77.63          33.66         -8.088         -9.088         -72.86         -9.443         -125.1          104.0          142.5
    0.6447              -51.32          10.12          77.51          33.67         -8.051          -9.08         -72.47         -9.399         -124.8          104.1          142.4
    0.6649              -51.25          10.09          77.37           33.7         -8.008         -9.071         -72.01         -9.347         -124.4          104.1          142.3
     0.685              -51.18          10.04           77.2          33.72         -7.958         -9.061         -71.48         -9.287         -124.0          104.2          142.1
    0.7052              -51.08          9.996           77.0          33.75         -7.898         -9.049         -70.85         -9.215         -123.5          104.3          142.0
    0.7253              -50.97          9.938          76.77          33.79         -7.827         -9.035          -70.1         -9.131         -122.8          104.4          141.8
    0.7455              -50.84          9.868          76.49          33.83         -7.743         -9.017         -69.21         -9.029         -122.1          104.6          141.5
    0.7656              -50.68          9.783          76.16          33.88          -7.64         -8.996         -68.13         -8.906         -121.2          104.7          141.2
    0.7858              -50.48           9.68          75.74          33.94         -7.515         -8.971         -66.81         -8.756         -120.1          104.9          140.9
    0.8059              -50.24          9.553          75.24          34.02          -7.36         -8.939         -65.17         -8.571         -118.7          105.2          140.4
    0.8261              -49.94          9.394           74.6          34.11         -7.167           -8.9         -63.14          -8.34         -117.0          105.5          139.9
    0.8462              -49.56          9.194           73.8          34.23         -6.925          -8.85         -60.58         -8.049         -114.9          105.9          139.2
    0.8664              -49.07           8.94          72.79          34.38         -6.616         -8.787         -57.32         -7.679         -112.1          106.4          138.3
    0.8865              -48.45          8.614          71.49          34.58         -6.221         -8.707         -53.15         -7.206         -108.7          107.1          137.2
    0.9067              -47.66          8.197          69.82          34.83         -5.713         -8.603         -47.79         -6.599         -104.2          107.9          135.8
    0.9268              -46.64          7.663          67.69          35.15         -5.066         -8.471         -40.96         -5.823         -98.46          108.9          133.9
     0.947              -45.37          6.993          65.01          35.55         -4.251         -8.305         -32.36         -4.847         -91.27          110.3          131.6
    0.9671              -43.81          6.175          61.74          36.05         -3.258         -8.103         -21.89         -3.658         -82.51          111.9          128.8
    0.9873              -42.01          5.228          57.96          36.61         -2.108         -7.868         -9.743          -2.28         -72.35          113.8          125.5
     1.007              -40.06          4.202          53.86          37.23         -0.862         -7.614          3.405        -0.7875         -61.36          115.8          122.0
     1.028              -38.11          3.176          49.76          37.85         0.3839          -7.36          16.55         0.7048         -50.36          117.9          118.5
     1.048              -36.31          2.229          45.98          38.42          1.534         -7.125           28.7          2.083         -40.21          119.7          115.2
     1.068              -34.75          1.411          42.71          38.91          2.527         -6.922          39.17          3.272         -31.45          121.4          112.4
     1.088              -33.48         0.7406          40.03          39.31          3.342         -6.756          47.77          4.248         -24.26          122.7          110.1
     1.108              -32.46         0.2071           37.9          39.63          3.989         -6.624           54.6          5.024         -18.54          123.8          108.3
     1.128              -31.67        -0.2105          36.23          39.88          4.497         -6.521          59.96          5.631         -14.06          124.6          106.8
     1.148              -31.05        -0.5359          34.94          40.08          4.892          -6.44          64.13          6.104         -10.58          125.2          105.7
     1.169              -30.56        -0.7901          33.92          40.23          5.201         -6.377          67.39          6.474         -7.852          125.8          104.8
     1.189              -30.18        -0.9901          33.12          40.35          5.443         -6.328          69.95          6.765         -5.708          126.1          104.1
